<?xml version="1.0" encoding="UTF-8" standalone="no"?>
<svg
   height="24"
   viewBox="0 -960 960 960"
   width="24"
   version="1.1"
   id="svg69"
   sodipodi:docname="Home.svg"
   xmlns:inkscape="http://www.inkscape.org/namespaces/inkscape"
   xmlns:sodipodi="http://sodipodi.sourceforge.net/DTD/sodipodi-0.dtd"
   xmlns="http://www.w3.org/2000/svg"
   xmlns:svg="http://www.w3.org/2000/svg">
  <defs
     id="defs73" />
  <sodipodi:namedview
     id="namedview71"
     pagecolor="#ffffff"
     bordercolor="#000000"
     borderopacity="0.25"
     inkscape:showpageshadow="2"
     inkscape:pageopacity="0.0"
     inkscape:pagecheckerboard="0"
     inkscape:deskcolor="#d1d1d1"
     showgrid="false" />
  <path
     d="m 200,-160 v -366 l -112,86 -48,-64 440,-336 160,122 v -82 h 120 v 174 l 160,122 -48,64 -112,-86 v 366 H 520 v -240 h -80 v 240 z m 80,-80 h 80 v -240 h 240 v 240 h 80 V -587 L 480,-739 280,-587 Z m 120,-319 h 160 q 0,-32 -24,-52.5 -24,-20.5 -56,-20.5 -32,0 -56,20.5 -24,20.5 -24,52.5 z m -40,319 v -240 h 240 v 240 -240 H 360 Z"
     id="path67" />
  <path
     style="fill:#f9f9f9;stroke-width:59.186"
     d="m 474.48596,-858.47025 c -15.08528,7.52967 -27.25284,19.86933 -41.12304,29.38112 -135.27964,102.84298 -270.2255,206.12408 -405.316527,309.21473 -9.946114,7.8118 -9.625871,22.92688 -1.03807,31.6392 16.299501,20.6992 30.564913,43.20228 48.842477,62.24028 9.323664,8.15048 23.071088,4.55596 31.12373,-3.5732 24.22819,-18.47408 48.38187,-37.04544 72.54921,-55.59904 0.3328,108.84868 0.0492,217.75884 0.76408,326.56916 0.49024,12.91156 13.79219,20.55416 25.73788,18.79272 78.3052,-0.352 156.67251,-0.088 234.93902,-0.822 12.851,-0.5052 20.51036,-13.71632 18.80428,-25.63508 0.18,-71.27852 0.356,-142.55704 0.5376,-213.83556 13.12884,0 26.25772,0 39.38656,0 0.34,73.6304 0.064,147.32296 0.786,220.91464 0.5052,12.851 13.71632,20.51036 25.63508,18.80428 78.30596,0.04 156.671,0.7012 234.94012,0.36 12.912,-0.4388 20.61196,-13.7062 18.89968,-25.65928 0.172,-106.51588 0.348,-213.03176 0.522,-319.54764 27.661,20.7018 54.336,42.90368 83.189,61.91432 11.14972,5.52088 23.48216,-1.3784 29.1514,-11.4112 14.7278,-20.08832 30.8226,-39.36776 44.47016,-60.12716 6.3864,-11.01976 -1.4396,-23.59 -11.2472,-29.46428 -48.55668,-37.23067 -97.19184,-74.36024 -145.9772,-111.29083 -0.192,-55.24831 0.232,-110.55755 -0.344,-165.76788 -0.4768,-12.9012 -13.75024,-20.54872 -25.68812,-18.82599 -38.63788,0.3092 -77.39716,-0.61592 -115.95956,0.4612 -13.00596,0.93464 -19.40412,14.90318 -17.67868,26.64193 -0.002,11.66461 0.003,23.32923 -0.002,34.99384 -43.64808,-32.78951 -86.55056,-66.62774 -130.72088,-98.69442 -5.04728,-2.18823 -9.77732,-2.69585 -15.18268,-1.67386 z m 10.74832,148.89488 c 58.76372,43.87606 116.97144,88.48947 175.40612,132.80132 0,105.49245 0,210.98489 0,316.47737 -13.4972,0 -26.99444,0 -40.49168,0 -0.156,-73.4166 0.308,-146.89368 -0.232,-220.27252 -0.4696,-12.90588 -13.74544,-20.56604 -25.6888,-18.83972 -78.5052,0.156 -157.07096,-0.308 -235.53837,0.232 -12.90589,0.4696 -20.56605,13.7454 -18.83972,25.6888 0,71.06428 0,142.12856 0,213.19284 -13.49723,0 -26.99445,0 -40.49169,0 0,-105.48168 0,-210.96336 0,-316.44499 60.10984,-45.65373 120.13286,-91.42232 180.37222,-136.90506 1.834,1.35712 3.6684,2.71424 5.50248,4.07136 z"
     id="path271" />
  <path
     style="fill:#f9f9f9;stroke-width:59.186"
     d="m 478.44172,-651.78329 c -37.69036,0.2176 -75.51756,22.33937 -91.03805,57.18403 -5.03451,14.21532 -10.85795,30.86046 -4.52892,45.39598 7.15205,13.838 24.56413,9.99632 37.34721,10.4864 46.93916,-0.156 93.93904,0.308 140.84044,-0.232 13.33064,-0.4804 20.80672,-14.42468 18.71024,-26.5951 -1.74752,-23.45584 -12.98336,-45.80325 -31.1074,-60.8563 -18.99496,-17.06036 -44.83792,-25.76206 -70.22352,-25.38301 z"
     id="path273" />
</svg>
