<?xml version="1.0" encoding="UTF-8" standalone="no"?>
<svg
   height="24"
   viewBox="0 -960 960 960"
   width="24"
   version="1.1"
   id="svg309"
   xmlns="http://www.w3.org/2000/svg"
   xmlns:svg="http://www.w3.org/2000/svg">
  <defs
     id="defs313" />
  <path
     d="M 80,-560 Q 80,-660 124.5,-743.5 169,-827 244,-882 l 47,64 q -60,44 -95.5,111 -35.5,67 -35.5,147 z m 720,0 q 0,-80 -35.5,-147 Q 729,-774 669,-818 l 47,-64 q 75,55 119.5,138.5 Q 880,-660 880,-560 Z m -640,360 v -80 h 80 v -280 q 0,-83 50,-147.5 50,-64.5 130,-84.5 v -28 q 0,-25 17.5,-42.5 17.5,-17.5 42.5,-17.5 25,0 42.5,17.5 17.5,17.5 17.5,42.5 v 28 q 80,20 130,84.5 50,64.5 50,147.5 v 280 h 80 v 80 z m 320,-300 z m 0,420 q -33,0 -56.5,-23.5 Q 400,-127 400,-160 h 160 q 0,33 -23.5,56.5 Q 513,-80 480,-80 Z M 320,-280 h 320 v -280 q 0,-66 -47,-113 -47,-47 -113,-47 -66,0 -113,47 -47,47 -47,113 z"
     id="path307" />
  <path
     style="fill:#f9f9f9;stroke-width:57.1428"
     d="m 477.15404,-899.72991 c -32.3484,0.70128 -63.02112,23.83121 -72.96876,54.50893 -3.6136,12.36174 -3.554,25.45339 -3.6628,38.15625 -60.57575,18.25887 -113.12116,60.35765 -144.83238,115.02383 -25.15414,41.74084 -36.71974,90.9151 -35.21019,139.47618 C 219.73365,-468.37868 220.08593,-384.18816 220,-300 c -21.1028,0.41652 -42.36721,-0.84756 -63.36576,0.65328 -12.9282,1.49884 -18.33759,15.78616 -16.63424,27.34672 0.42368,25.10212 -0.85504,50.36792 0.65328,75.36576 1.49884,12.9282 15.78616,18.3376 27.34672,16.63424 210.66666,0 421.33332,0 632,0 12.64392,-0.152 21.64836,-12.4302 20,-24.57144 -0.4248,-26.24488 0.8564,-52.65376 -0.6532,-78.79432 C 817.84788,-296.29396 803.56056,-301.70336 792,-300 c -17.3192,0 -34.6384,0 -51.9576,0 -0.5908,-92.56836 0.18,-185.15396 -1.4516,-277.71068 -0.83308,-44.47325 -16.86028,-87.82152 -40.93008,-124.87414 -30.5778,-47.2069 -76.85836,-84.13542 -130.34552,-101.9475 -5.39924,-1.06815 -9.48924,-2.91552 -7.8978,-9.00786 0.56752,-20.90768 -3.85816,-43.2143 -19.25892,-58.44866 -15.5586,-18.61103 -38.79484,-28.60772 -63.00444,-27.74107 z m 4.47096,199.91518 c 35.356,-0.6896 70.13984,14.02587 94.9462,39.08501 22.6492,21.49232 39.32836,50.65037 42.12076,82.04445 1.4424,71.36007 0.7316,143.81571 1.1752,215.59131 0.052,21.03132 0.1,42.06264 0.152,63.09396 -93.34524,0 -186.69044,0 -280.03569,0 0.45076,-91.2846 -0.0752,-183.24888 1.15624,-274.12276 0.6876,-25.6006 11.69791,-50.41198 27.52456,-70.26787 21.84369,-27.09354 52.22441,-49.17128 87.48009,-53.62872 8.4296,-1.26316 16.96084,-1.8122 25.48196,-1.7954 z"
     id="path315" />
  <path
     style="fill:#f9f9f9;stroke-width:57.1428"
     d="m 243.36607,-900.51116 c -14.55507,1.20808 -24.43718,13.66835 -35.54326,21.76648 -77.18191,66.2438 -131.666686,160.45932 -143.879226,262.02107 -2.21796,19.97805 -4.585864,40.23408 -3.5872,60.28573 1.62844,12.77892 15.820252,18.172 27.322192,16.43788 24.840554,-0.296 49.794494,0.5868 74.565264,-0.4356 12.88492,-0.895 19.52623,-14.7018 17.75992,-26.41038 1.00802,-54.3595 16.76537,-108.58572 46.79616,-154.07526 20.22924,-32.10572 47.76664,-58.84361 77.0974,-82.58546 9.32648,-8.7782 6.9863,-23.56736 -1.35938,-32.17187 -14.63428,-19.73561 -28.42426,-40.1987 -44.08705,-59.11607 -4.10945,-3.69496 -9.53557,-5.84793 -15.08482,-5.71652 z"
     id="path317" />
  <path
     style="fill:#f9f9f9;stroke-width:57.1428"
     d="m 713.00892,-900.28795 c -14.44808,2.49752 -20.08252,17.9291 -28.77856,27.84497 -10.7634,15.46412 -23.0416,30.06386 -32.4848,46.35102 -4.7546,10.7576 1.828,22.28822 11.00636,28.22605 50.53636,39.92053 89.78688,95.00627 106.73916,157.47083 7.71988,26.79474 9.90032,54.74893 11.15648,82.44524 1.0636,12.9668 14.6842,19.74188 26.56448,17.94984 25.47188,-0.4244 51.1076,0.856 76.47516,-0.6532 12.71388,-1.484 18.63636,-15.65736 16.2824,-27.158 -1.8014,-68.51455 -18.73456,-137.12476 -53.42456,-196.54534 -29.73988,-51.19995 -69.03648,-97.57965 -117.3062,-132.17248 -4.79456,-3.05337 -10.56316,-4.55334 -16.22992,-3.75893 z"
     id="path319" />
  <path
     style="fill:#f9f9f9;stroke-width:57.1428"
     d="m 392.51339,-178.54688 c -12.79886,5.37624 -14.14745,20.68532 -11.41294,32.60716 5.68528,46.70332 48.93971,84.9426 95.79019,85.74552 32.88436,1.4728 65.14912,-15.15728 84.10632,-41.86388 12.76152,-16.72744 19.21068,-38.16616 18.78528,-59.06384 C 579.333,-173.91016 566.1948,-181.7624 554.28572,-180 c -51.79556,0.144 -103.64696,-0.292 -155.40764,0.216 -2.12156,0.4116 -4.24312,0.8236 -6.36469,1.2352 z"
     id="path321" />
</svg>
