<?xml version="1.0" encoding="UTF-8" standalone="no"?>
<!-- Created with Inkscape (http://www.inkscape.org/) -->

<svg
   version="1.1"
   id="svg59"
   width="512"
   height="512"
   viewBox="0 0 512 512"
   xmlns="http://www.w3.org/2000/svg"
   xmlns:svg="http://www.w3.org/2000/svg">
  <defs
     id="defs63" />
  <g
     id="g65">
    <g
       id="g266"
       transform="translate(0.34764056,12.156369)">
      <path
         style="fill:#000000;stroke-width:31.566"
         d="m 230.28483,127.16276 c -5.09782,0.33664 -9.49397,4.96285 -8.81874,10.19482 -0.49563,23.98645 -0.1248,47.98444 -0.24167,71.97534 -8.06525,8.54196 -17.204,16.17566 -24.41061,25.47719 -2.34206,4.85748 -0.5068,10.58902 -0.77864,15.77363 1.93768,43.74415 4.60644,87.48332 6.41859,131.21404 -0.10148,5.38113 1.44092,12.4392 -3.85203,15.95191 -5.25855,3.33418 -14.10469,2.32881 -16.40074,-4.24167 -2.38048,-7.46365 -0.15453,-15.39985 -0.2218,-23.05643 2.03781,-39.83544 3.90289,-79.68649 5.97149,-119.50091 -0.31795,-5.29639 1.28543,-11.01013 -0.59803,-16.08632 -6.98492,-9.23256 -16.02016,-16.7417 -23.8779,-25.22281 -1.3182,-4.1457 -0.23961,-9.28734 -0.65351,-13.8088 -0.17283,-21.13455 -0.34601,-42.2691 -0.51914,-63.40365 -3.01497,-4.79599 -10.62286,-7.12813 -14.8841,-2.46363 -4.18345,3.72799 -2.22628,10.01368 -2.88981,14.89753 -0.0735,23.48946 -0.64942,47.01423 0.12532,70.48472 1.7926,5.51988 7.26133,8.85195 10.84284,13.16366 4.69412,4.74526 9.40074,9.47936 14.10044,14.21981 -2.00038,46.07904 -4.85648,92.11788 -6.72009,138.20223 -0.27427,8.03144 -0.99499,16.78382 4.02958,23.68036 7.05069,11.57606 22.5515,17.69311 35.29471,12.1692 10.72756,-3.50654 17.97358,-13.8824 19.22123,-24.88819 0.83564,-7.19666 -0.85682,-14.45026 -0.7657,-21.68537 -1.86566,-42.56098 -4.34238,-85.09165 -6.26564,-127.64962 8.15851,-8.63666 17.36512,-16.46297 24.5376,-25.94574 1.21414,-19.14277 0.49369,-38.39503 0.69761,-57.57953 -0.3567,-8.69939 0.65223,-17.58865 -0.93312,-26.17756 -1.40516,-3.18814 -4.90205,-5.64552 -8.40814,-5.69421 z"
         id="path192" />
      <path
         style="fill:#000000;stroke-width:31.566"
         d="m 257.01726,83.795314 c -10.79525,0.160479 -21.70661,0.547267 -32.24167,2.966708 -8.59757,1.391867 -17.03856,3.720765 -25.26141,6.54254 -4.73699,0.943881 -9.12267,3.909291 -10.48335,8.786688 -2.13015,7.14487 6.30515,14.7007 13.21825,11.52651 9.47719,-2.82968 18.83435,-6.02708 28.66091,-7.29347 7.87711,-2.33516 16.27576,-1.14424 24.3995,-1.62849 11.11096,-0.38111 22.23511,0.47031 33.06166,2.83318 4.84843,1.13446 11.28209,1.38038 14.10974,-3.61653 1.53681,-3.38935 1.98488,-7.875482 0.17879,-11.194818 -4.39777,-5.48852 -11.94237,-5.105316 -18.19359,-6.545006 -9.10619,-1.150692 -18.24441,-2.569608 -27.44883,-2.377312 z m 2.28977,3.563502 c 12.51253,-0.214175 25.06646,1.398904 37.13564,4.654748 6.07521,1.411699 5.62364,10.950376 0.2318,12.636256 -10.7814,0.15807 -21.23922,-3.17956 -32.02793,-3.48966 -12.31217,-1.00671 -24.74116,0.28227 -36.87551,2.35748 -8.71469,1.51128 -17.13905,4.17106 -25.55278,6.78446 -3.57855,1.01337 -8.51024,0.71888 -9.77682,-3.48212 -0.9532,-3.88518 0.89213,-8.344455 5.03823,-9.3058 12.30452,-4.737034 25.33796,-7.794419 38.34011,-9.1801 7.77397,-0.716535 15.63643,-0.979152 23.48726,-0.975264 z"
         id="path194" />
      <path
         style="fill:#000000;stroke-width:31.566"
         d="m 319.59926,127.22072 c -16.54069,0.2078 -32.64108,11.40752 -37.2984,27.51171 -4.90463,14.73891 -10.24575,29.86051 -9.5742,45.62883 -0.39211,12.22707 0.71971,25.14193 7.77894,35.56053 3.86923,6.22447 9.64203,10.94897 15.84582,14.71323 -0.61406,26.16158 -2.48188,52.362 -3.37973,78.55063 -0.67349,21.36043 -2.48352,42.70659 -2.36873,64.07945 1.20778,13.77668 13.87574,24.89297 27.51788,25.43774 12.92814,1.14492 25.60622,-7.20073 30.17338,-19.26113 1.93271,-5.15415 0.29434,-11.08312 0.76491,-16.55101 -0.49196,-32.44592 -2.81421,-64.83133 -3.97413,-97.25687 -0.51791,-11.6446 -1.01087,-23.29034 -1.44505,-34.93839 13.64757,-7.55459 22.43553,-22.38198 23.4032,-37.8545 2.52855,-20.41787 -3.06071,-40.74542 -9.85302,-59.81296 -5.6007,-15.48319 -21.24993,-25.86991 -37.59087,-25.80726 z m 0.47102,19.31442 c 5.55438,-0.51797 11.08534,1.45088 14.77436,5.69667 6.25715,6.09548 6.98219,15.41994 9.81684,23.24141 3.15358,9.05659 4.21504,18.24749 3.70898,27.8079 0.12639,7.32281 0.22397,15.08965 -4.03384,21.44761 -3.49566,6.59337 -10.60357,9.50655 -16.5598,13.2725 -4.21131,4.07902 -2.0974,10.68949 -2.58816,15.87177 1.23625,39.66171 3.38514,79.29251 5.08731,118.93715 -0.0141,6.62492 1.42119,13.34597 0.31589,19.88652 -1.51528,4.59671 -6.0861,7.25769 -10.81257,7.0037 -6.1689,0.65302 -11.54504,-5.50739 -10.59063,-11.54378 0.89267,-29.34681 2.69098,-58.73486 3.82594,-88.10425 0.7004,-18.51005 2.19734,-37.02404 2.05322,-55.54802 0.22192,-4.89862 -4.05283,-7.91333 -8.09125,-9.5931 -8.06419,-3.75067 -13.67316,-11.76619 -14.87061,-20.36637 -3.66035,-16.78906 1.43437,-33.65809 6.37183,-49.58136 1.59026,-8.65705 8.32282,-16.95092 17.25217,-18.35806 1.44513,-0.0854 2.89353,-0.0643 4.34032,-0.0703 z"
         id="path196" />
      <path
         style="fill:#000000;stroke-width:31.566"
         d="m 379.32059,142.32059 c -6.67121,0.37362 -11.05815,9.04973 -6.72749,14.45006 8.22052,11.35209 16.43811,22.73814 22.15468,35.6458 7.31324,16.00831 12.09655,33.29893 13.33312,50.85721 0.47716,15.02281 0.8005,30.29492 -2.88305,45.00571 -5.80664,27.93096 -20.19921,53.66139 -39.76258,74.32852 -3.65687,3.42743 -5.71372,9.28596 -2.33909,13.65228 3.5551,5.06519 12.13225,4.54526 15.47719,-0.5561 18.64713,-18.95738 32.59307,-42.39973 40.74005,-67.68445 9.01978,-27.83997 9.78278,-58.06413 4.64959,-86.76191 -5.77413,-27.23854 -18.30603,-53.04844 -36.01603,-74.52405 -2.16549,-2.50377 -5.13426,-4.72781 -8.62639,-4.41307 z"
         id="path198" />
      <path
         style="fill:#000000;stroke-width:31.566"
         d="M 252.79162,-0.61528977 C 188.88896,-0.49286746 125.80837,25.645067 79.557672,69.55835 30.64098,115.64512 0.66774396,181.51909 -0.60542542,248.836 -2.8861863,314.83189 22.01148,381.14748 66.874631,429.5571 c 28.820391,31.30564 65.339019,55.53288 105.655579,69.26781 21.89737,7.87303 44.96659,11.80434 68.10358,13.62022 9.72587,1.23828 19.66445,0.008 29.45869,-0.0752 67.01556,-3.253 131.96086,-34.62586 176.65066,-84.60004 C 488.28182,381.86885 512.64403,320.5633 512.66338,258.55242 513.1916,219.08444 504.27037,179.50609 486.97657,144.037 455.791,79.3282 396.2684,28.912903 327.10801,9.328861 302.97815,2.5090403 277.90005,-1.2563708 252.79162,-0.61528977 Z M 256,18.347719 c 13.82725,-0.192837 27.64856,0.45271 41.22921,3.267427 51.37462,8.548274 99.23754,35.356423 134.341,73.719039 33.29099,36.187535 54.92359,82.863075 60.73435,131.596765 2.0634,15.94491 1.30898,32.14638 0.99365,48.17192 -3.65591,45.56173 -20.75743,89.89706 -48.84259,126.06946 -37.68412,49.14789 -95.15249,82.70808 -156.68536,90.7089 -14.8967,2.27142 -30.08876,1.63765 -45.15482,1.84834 -35.30062,-2.14977 -70.03162,-11.7628 -100.91667,-28.92803 -62.809128,-34.0302 -108.729801,-97.7926 -120.232607,-168.43156 -3.954776,-19.05295 -3.218399,-38.60152 -2.829737,-57.91696 0.80384,-14.98486 3.909007,-29.78978 7.424367,-44.3443 C 38.738999,146.85027 66.428414,103.93164 104.12748,72.758477 136.33309,45.940163 175.80517,27.752735 217.26757,21.182491 230.06879,18.590007 242.98566,18.255139 256,18.347719 Z"
         id="path200" />
      <path
         style="fill:#000000;stroke-width:31.566"
         d="m 124.63255,151.39088 c -6.73328,0.11131 -9.23905,7.50961 -12.74263,11.99963 -15.76569,24.62716 -25.304793,53.35483 -26.951545,82.56486 -0.517184,15.20159 0.03188,30.50399 3.493457,45.37315 4.366907,22.22199 13.786748,43.32852 26.601788,61.98981 6.4234,9.20241 13.472,18.2597 22.19203,25.38451 6.59395,3.64526 14.73044,-3.54047 12.72503,-10.5783 -2.34082,-6.25263 -8.35407,-10.24142 -12.10728,-15.61652 -21.63159,-26.51676 -34.70631,-60.2669 -34.05574,-94.59926 -0.75061,-18.9582 2.40905,-38.06218 9.37634,-55.68188 4.86957,-13.20318 11.97654,-25.2837 19.61652,-37.10974 3.91198,-5.82703 -1.20959,-14.20194 -8.14797,-13.72626 z"
         id="path202" />
    </g>
    <path
       style="fill:#000000;stroke-width:31.566"
       d="m 233.65713,420.63602 c -5.8673,2.6496 -7.33207,11.18828 -2.41553,15.42787 5.395,3.80596 12.61489,2.71108 18.84808,3.38398 9.7741,-0.003 19.82583,0.46355 29.35907,-1.97337 6.11189,-2.63812 6.9641,-11.89769 1.51608,-15.70575 -2.89043,-2.62146 -7.5319,-0.55398 -11.12394,-1.22821 -12.04938,0.0992 -24.18728,-0.33285 -36.18376,0.0955 z"
       id="path204" />
    <path
       style="fill:#000000;stroke-width:31.566"
       d="m 253.01233,99.083847 c -12.47693,-0.270759 -24.96338,0.836319 -37.03329,4.110973 -7.3833,2.10974 -15.35855,3.46899 -21.81998,7.80888 -3.57552,3.34898 -3.44962,10.71642 1.8804,12.23428 5.71834,1.71311 11.41312,-1.99277 16.96568,-2.92305 23.50819,-6.76273 48.46895,-8.12026 72.56896,-3.52025 4.42269,0.0362 9.69119,2.45405 13.64415,-0.35202 3.69878,-2.8835 4.15274,-9.77484 -0.43896,-12.09864 -6.44197,-3.01402 -13.76085,-3.72036 -20.7275,-4.821209 -8.32724,-0.622795 -16.69617,-0.40421 -25.03946,-0.438964 z"
       id="path377" />
  </g>
  <path
     style="fill:#f9f9f9;stroke-width:30.4762"
     d="m 125.04762,163.19643 c -6.28151,-0.0129 -9.03678,6.71045 -12.27506,10.97336 -18.913141,29.18371 -29.568882,64.17281 -27.709759,99.06905 0.148623,32.48275 11.19194,64.50693 29.272199,91.3247 6.86829,9.46126 13.77537,19.31876 23.14238,26.47812 6.42063,4.17132 15.42802,-3.7687 13.08214,-10.7869 -3.03146,-7.13805 -9.5468,-12.08717 -13.90651,-18.39264 -16.8015,-21.56792 -28.27694,-47.63239 -31.17712,-74.88463 -0.97525,-14.12022 -0.99377,-28.50048 0.43244,-42.58106 3.43132,-23.98664 14.33985,-46.03299 27.04881,-66.3631 4.03833,-5.52542 0.24057,-14.33534 -6.71785,-14.78333 -0.39566,-0.042 -0.79378,-0.0625 -1.19167,-0.0536 z"
     id="path381" />
  <path
     style="fill:#f9f9f9;stroke-width:30.4762"
     d="m 230.51547,139.10952 c -4.5542,0.19659 -9.03614,3.81257 -8.65181,8.70725 -1.04269,23.0709 -0.24175,46.19463 -0.49699,69.28561 1.25302,4.36539 -2.54237,6.61751 -5.21052,9.3415 -6.53595,6.8106 -13.95628,12.95511 -19.44186,20.67755 -1.98543,7.17235 -0.36163,14.84102 -0.42832,22.18908 2.09538,44.62982 4.63707,89.23187 6.41284,133.8764 -1.35321,4.38588 -5.1273,8.33489 -9.9881,7.98214 -5.03767,0.62968 -9.93715,-3.07105 -10.15476,-8.27857 -0.68847,-11.04752 0.69186,-22.15488 0.88832,-33.21767 1.5726,-38.6978 4.28874,-77.35418 5.27274,-116.07517 0.38454,-4.00877 -0.81708,-7.98432 -3.9715,-10.62594 -6.61471,-7.47456 -13.76613,-14.44724 -20.70146,-21.61932 -1.01472,-25.68276 -0.61107,-51.46254 -0.95119,-77.10714 -3.47775,-4.72374 -11.44026,-7.2723 -15.71786,-2.20238 -4.30948,4.33737 -2.07421,11.01095 -2.77416,16.40916 -0.0982,22.71567 -0.63601,45.45136 0.0337,68.1575 0.39584,5.0665 5.64114,7.82645 8.36653,11.62879 5.45894,5.80859 11.03808,11.50192 16.55609,17.25455 -2.11129,47.09499 -5.25563,94.14854 -6.65797,141.2714 -0.34527,7.80159 0.17059,16.28887 5.65321,22.42145 7.08566,9.39709 19.733,14.54023 31.23691,11.12501 14.32891,-3.48701 23.91872,-18.47753 22.4231,-32.92208 -2.41554,-47.50643 -4.48,-95.03538 -7.19811,-142.52793 8.32942,-8.5112 17.18766,-16.62812 24.72381,-25.83809 1.02417,-26.31778 1.18247,-52.69657 0.20681,-79.01406 0.0692,-4.44098 -1.90545,-9.4353 -6.64252,-10.5657 -0.90301,-0.26019 -1.8479,-0.37413 -2.78691,-0.33334 z"
     id="path383" />
  <path
     style="fill:#f9f9f9;stroke-width:30.4762"
     d="m 251.03095,95.785714 c -18.08894,0.192149 -36.0141,4.151608 -53.11125,9.869396 -5.4875,1.37606 -9.92509,7.14661 -9.07327,12.81989 1.33859,5.41258 6.95212,9.43838 12.52262,7.84286 14.92513,-3.8467 29.78626,-9.14741 45.39874,-8.78879 14.39261,-0.11797 28.96827,-0.55858 43.04649,2.73998 5.06147,0.91606 11.95738,0.31005 13.86787,-5.4 2.57991,-5.45482 -0.15944,-12.61214 -6.14405,-14.25238 -15.02531,-4.199665 -30.99298,-4.6904 -46.50715,-4.830956 z"
     id="path385" />
  <path
     style="fill:#f9f9f9;stroke-width:30.4762"
     d="m 320.30476,139.4369 c -13.45184,-0.86738 -26.51995,7.02562 -33.69762,18.12858 -6.60041,12.92474 -10.49177,27.14536 -13.11071,41.37381 -1.44317,15.41743 -2.2255,32.07532 5.21215,46.20724 3.92005,7.68946 10.68459,13.32199 17.68547,18.10704 -1.73709,44.43385 -4.456,88.83182 -5.65702,133.28441 -0.3553,7.19872 -0.30191,14.96031 4.26416,20.98702 6.6441,10.38808 19.80161,15.94174 31.83691,13.07619 10.54885,-2.03437 18.89838,-10.28691 22.71889,-20.10364 0.84156,-6.88644 -0.13812,-14.15204 0.0168,-21.18088 -0.81787,-41.48511 -3.9323,-82.89276 -4.87024,-124.36905 -0.507,-3.2373 3.7288,-3.61101 5.31589,-5.68083 12.71333,-9.89745 18.65475,-26.34708 18.14578,-42.13804 0.78557,-17.73589 -4.43988,-35.00751 -10.15928,-51.58351 -3.00956,-9.24075 -10.25749,-16.65888 -18.47734,-21.53428 -5.90103,-3.28527 -12.43073,-5.19488 -19.22386,-4.57406 z m 0.001,19.84405 c 9.34889,-1.20216 17.74792,6.30745 19.98174,14.98663 3.53706,11.4953 8.29861,23.01179 7.79474,35.23318 -0.29162,9.56116 1.5466,20.43317 -4.80624,28.54448 -3.99533,5.61956 -10.58889,8.25137 -15.84167,12.35238 -3.681,4.85837 -1.9297,11.58378 -2.24452,17.23044 1.41092,44.57397 4.15496,89.09833 5.52071,133.67075 0.87559,7.86224 -9.27839,12.57178 -15.59404,8.90357 -5.3955,-2.33187 -5.02907,-8.77008 -4.88313,-13.68686 1.22712,-46.81792 4.95232,-93.55961 5.35098,-140.40005 0.28739,-6.04896 -6.69462,-8.23212 -10.75119,-11.07975 -7.04282,-4.57944 -11.57671,-12.31291 -12.23876,-20.64589 -2.26649,-13.74267 0.72374,-27.59185 4.7684,-40.74749 2.19399,-7.40976 3.80838,-15.83859 10.54774,-20.63163 3.43981,-3.12108 7.91429,-4.03704 12.39524,-3.72976 z"
     id="path387" />
  <path
     style="fill:#f9f9f9;stroke-width:30.4762"
     d="m 379.99286,154.32738 c -6.84454,-0.23896 -11.69785,8.72604 -7.47381,14.24524 9.73354,14.50385 20.02992,28.9027 25.96353,45.50712 6.44782,16.52924 9.86661,34.13305 9.56141,51.87263 0.41802,14.19177 -0.76648,28.3548 -4.85608,41.95912 -6.72481,25.38091 -20.72115,48.39432 -38.53196,67.56827 -4.30491,4.30805 -4.44784,13.14081 1.77143,15.75238 5.0156,3.00389 10.51623,-0.41082 13.89048,-4.23571 30.16302,-31.4848 48.01112,-74.73097 47.4957,-118.45476 0.17522,-24.81602 -4.7466,-49.73927 -15.5725,-72.1449 -6.78183,-14.06994 -14.74668,-27.86002 -25.39582,-39.37058 -1.82636,-1.77186 -4.27651,-2.88244 -6.85238,-2.69881 z"
     id="path389" />
  <path
     style="fill:#f9f9f9;stroke-width:30.4762"
     d="M 257.39643,11.197619 C 224.36246,10.748977 191.33046,17.059907 160.71899,29.453296 110.93281,49.50143 67.661757,85.521676 38.975,130.88215 15.850097,167.86028 1.5246825,210.55469 -0.34023448,254.24249 -3.3643873,307.51872 10.760804,361.56674 39.636797,406.45392 78.886144,468.23483 145.54788,512.2214 218.20834,522.35 c 12.56014,2.14157 25.26985,3.122 38.00945,2.64561 16.94282,0.1182 33.91525,-1.0161 50.49732,-4.64705 59.53255,-11.83828 114.41153,-45.49754 151.72295,-93.40674 35.89111,-45.42014 55.9579,-103.23189 54.92985,-161.19179 C 513.08824,205.17284 490.28369,145.06449 450.23562,99.603115 412.60512,56.201417 360.19983,25.788183 303.62354,15.47556 288.38817,12.650605 272.9082,10.935404 257.39643,11.197619 Z m -1.58215,19.780953 c 35.56697,-0.714576 71.05101,7.655366 103.1381,22.871428 28.5862,13.621497 54.0708,33.348031 75.15802,56.92756 33.60707,37.55603 54.54848,86.30951 58.93603,136.38434 0.64852,23.22451 1.05425,46.77629 -4.13453,69.50001 -10.82347,51.76578 -39.49351,99.52899 -80.18403,133.35524 -37.33224,31.60178 -84.92073,51.27393 -133.67192,54.86856 -17.94727,0.4863 -36.04015,1.29528 -53.82039,-1.77714 C 163.82448,494.62848 109.93126,464.31865 73.245233,419.30211 43.3033,383.17183 24.144962,338.02399 19.970238,291.26548 19.194801,273.67355 18.789406,255.88659 20.596263,238.38072 27.067586,188.28993 49.60148,140.3049 84.830141,104.03138 118.62232,68.364303 163.73806,43.826675 212.0428,34.81927 c 14.40998,-3.007994 29.04947,-4.053149 43.77148,-3.840698 z"
     id="path391" />
  <path
     style="fill:#f9f9f9;stroke-width:30.4762"
     d="m 233.22024,420.18929 c -5.68316,3.03957 -6.952,11.72382 -2.22738,16.07023 6.71646,4.41964 15.34606,3.03788 22.96428,3.44663 8.5714,-0.46847 17.53769,0.64771 25.7881,-2.1621 4.81824,-2.00145 7.03595,-9.01925 3.80476,-13.32024 -2.78097,-5.51491 -9.78944,-3.68351 -14.7381,-4.125 -11.85682,0.0235 -23.77015,-0.17292 -35.59166,0.0905 z"
     id="path393" />
</svg>
