<?xml version="1.0" encoding="UTF-8" standalone="no"?>
<svg
   height="24"
   viewBox="0 -960 960 960"
   width="24"
   version="1.1"
   id="svg471"
   xmlns="http://www.w3.org/2000/svg"
   xmlns:svg="http://www.w3.org/2000/svg">
  <defs
     id="defs475" />
  <path
     d="m 560,-440 q -50,0 -85,-35 -35,-35 -35,-85 0,-50 35,-85 35,-35 85,-35 50,0 85,35 35,35 35,85 0,50 -35,85 -35,35 -85,35 z m -280,120 q -33,0 -56.5,-23.5 Q 200,-367 200,-400 v -320 q 0,-33 23.5,-56.5 Q 247,-800 280,-800 h 560 q 33,0 56.5,23.5 23.5,23.5 23.5,56.5 v 320 q 0,33 -23.5,56.5 Q 873,-320 840,-320 Z m 80,-80 h 400 q 0,-33 23.5,-56.5 Q 807,-480 840,-480 v -160 q -33,0 -56.5,-23.5 Q 760,-687 760,-720 H 360 q 0,33 -23.5,56.5 Q 313,-640 280,-640 v 160 q 33,0 56.5,23.5 23.5,23.5 23.5,56.5 z m 440,240 H 120 Q 87,-160 63.5,-183.5 40,-207 40,-240 v -440 h 80 v 440 H 800 Z M 280,-400 v -320 z"
     id="path469" />
  <path
     style="fill:#f9f9f9;stroke-width:57.1428"
     d="m 32.513393,-698.54688 c -11.430965,4.72672 -13.657541,17.81815 -12.513393,28.8326 0.2706,138.7276 -0.591512,277.4616 0.547828,416.18504 0.37652,20.0706 0.0052,41.2916 10.514672,59.19664 14.978824,27.77164 43.357868,49.36464 75.07366,52.89956 89.10746,1.8372 178.25534,0.9116 267.37946,1.2872 142.52634,-0.076 285.10818,0.388 427.59966,-0.072 12.79044,-0.4456 20.64868,-13.58528 18.88472,-25.49684 -0.4244,-25.86396 0.856,-51.89184 -0.6532,-77.65148 C 817.84788,-256.29396 803.56056,-261.70336 792,-260 c -217.33332,0 -434.66666,0 -652,0 -0.1452,-140.367 0.2904,-280.78984 -0.2176,-421.12192 -0.4494,-12.78824 -13.5876,-20.64047 -25.49668,-18.87808 -25.863968,0.42433 -51.891828,-0.85593 -77.651478,0.65328 -1.373616,0.2668 -2.747232,0.53324 -4.120849,0.79984 z"
     id="path477" />
  <path
     style="fill:#f9f9f9;stroke-width:57.1428"
     d="m 458.96652,-819.99777 c -63.4579,0.40815 -126.9615,-0.84565 -190.38616,1.53795 -32.96426,1.26431 -61.62222,24.70362 -77.32813,52.52902 -13.51265,23.28051 -9.93659,51.07546 -11.0354,76.81 -0.174,94.16772 -0.70624,188.3462 0.3696,282.5088 -0.0568,18.91692 1.79044,38.53788 11.96286,54.99592 15.35162,26.36628 42.85095,46.74648 73.52232,50.19644 83.12705,1.874 166.29879,0.912 249.44423,1.288 107.38304,-0.272 214.78076,0.8644 322.154,-0.7944 17.44696,0.04 35.43268,-2.0068 50.49552,-11.57364 28.901,-16.96944 51.4694,-48.16128 50.85716,-82.64284 1.8492,-77.94884 0.6116,-155.94032 0.9612,-233.90626 -0.5908,-37.0424 1.162,-74.24236 -2.2804,-111.16965 -6.40036,-34.78495 -34.24452,-63.9897 -67.35956,-75.24362 -22.5768,-5.42378 -46.1498,-3.26295 -69.17412,-4.21875 -114.0658,-0.60058 -228.13612,-0.20284 -342.20312,-0.31697 z M 560,-700 c 60.75668,0 121.5134,0 182.27008,0 7.40064,38.18724 39.5046,70.4067 77.72992,77.7433 0,41.50967 0,83.01934 0,124.52902 -38.20508,7.38832 -70.43828,39.47472 -77.74332,77.72768 -121.50444,0 -243.00892,0 -364.51338,0 -7.30512,-38.25296 -39.53827,-70.33932 -77.7433,-77.72768 0,-41.51488 0,-83.02976 0,-124.54464 38.20508,-7.38832 70.43828,-39.47471 77.7433,-77.72768 60.75222,0 121.50446,0 182.2567,0 z"
     id="path479" />
  <path
     style="fill:#f9f9f9;stroke-width:57.1428"
     d="m 556.32144,-699.26116 c -53.23236,-0.85508 -103.80752,34.66438 -124.5916,83.11321 -11.99372,25.22995 -12.84768,53.96389 -9.3928,81.21267 10.23076,64.84188 72.62404,117.30092 138.54236,114.42396 55.858,1.1124 109.52024,-35.99788 129.35052,-88.01992 7.67836,-18.11028 9.923,-37.86132 8.94196,-57.38394 0.1734,-44.87564 -26.23908,-87.57696 -63.30052,-111.82599 -23.48028,-15.43079 -51.46384,-23.15479 -79.54992,-21.51999 z"
     id="path481" />
</svg>
