<?xml version="1.0" encoding="UTF-8" standalone="no"?>
<svg
   height="24"
   viewBox="0 -960 960 960"
   width="24"
   version="1.1"
   id="svg520"
   sodipodi:docname="Power.svg"
   xmlns:inkscape="http://www.inkscape.org/namespaces/inkscape"
   xmlns:sodipodi="http://sodipodi.sourceforge.net/DTD/sodipodi-0.dtd"
   xmlns="http://www.w3.org/2000/svg"
   xmlns:svg="http://www.w3.org/2000/svg">
  <defs
     id="defs524" />
  <sodipodi:namedview
     id="namedview522"
     pagecolor="#ffffff"
     bordercolor="#000000"
     borderopacity="0.25"
     inkscape:showpageshadow="2"
     inkscape:pageopacity="0.0"
     inkscape:pagecheckerboard="0"
     inkscape:deskcolor="#d1d1d1"
     showgrid="false" />
  <path
     d="m 440,-440 v -400 h 80 v 400 z m 40,320 q -74,0 -139.5,-28.5 Q 275,-177 226,-226 177,-275 148.5,-340.5 120,-406 120,-480 q 0,-80 33,-151 33,-71 93,-123 l 56,56 q -48,40 -75,97 -27,57 -27,121 0,116 82,198 82,82 198,82 117,0 198.5,-82 81.5,-82 81.5,-198 0,-64 -26.5,-121 -26.5,-57 -75.5,-97 l 56,-56 q 60,52 93,123 33,71 33,151 0,74 -28.5,139.5 -28.5,65.5 -77,114.5 -48.5,49 -114,77.5 Q 555,-120 480,-120 Z"
     id="path518" />
  <path
     style="fill:#f9f9f9;stroke-width:57.1428"
     d="m 238.74553,-772.1875 c -17.85186,11.24938 -31.54582,27.94054 -45.73765,43.34726 -56.48405,64.73448 -90.0895,149.27758 -92.461,235.21524 -1.142804,46.85112 4.70574,94.12968 20.92807,138.26856 38.84471,110.79792 131.22927,201.16716 243.07639,237.06624 42.13094,13.74688 86.82918,19.80696 131.0931,17.37696 91.70904,-2.0096 181.19492,-41.74976 246.80316,-105.4064 66.50164,-63.5952 109.04604,-151.89084 116.2116,-243.6968 1.506,-37.034 1.2516,-74.51396 -7.45832,-110.75811 -17.05432,-80.62741 -62.08784,-154.50717 -124.31696,-208.24777 -10.09364,-7.74269 -24.21012,-3.16124 -31.47096,6.24777 -17.64748,17.44454 -35.69896,34.64441 -52.51836,52.81963 -8.9418,10.32397 -2.9092,25.83299 8.02884,32.04655 41.73528,35.50978 70.5242,85.48484 82.74972,138.73905 13.324,64.99728 5.79704,136.1248 -29.85844,193.08368 -37.61348,60.02112 -98.40944,107.45168 -168.8348,120.84012 -66.97584,12.9756 -140.0771,2.6584 -196.94968,-36.46056 -56.31004,-37.94652 -100.04463,-96.70636 -112.80115,-164.11892 -15.013,-73.85448 2.17155,-154.00576 48.44223,-213.82437 12.28128,-16.80987 27.67792,-30.97732 42.58904,-45.28425 9.22634,-9.58508 4.45346,-24.88375 -5.48342,-32.01846 -18.00002,-17.3718 -34.887,-36.09456 -53.58182,-52.62303 -5.16164,-4.26462 -12.26116,-4.29374 -18.44959,-2.61239 z"
     id="path526" />
  <path
     style="fill:#f9f9f9;stroke-width:57.1428"
     d="m 432.5134,-858.54688 c -11.43096,4.72672 -13.65756,17.81815 -12.5134,28.8326 0.144,130.27176 -0.292,260.59934 0.216,390.8362 0.4492,12.78824 13.58744,20.64048 25.49652,18.87808 25.86396,-0.4244 51.89184,0.856 77.65148,-0.6532 12.92996,-1.4988 18.33936,-15.78624 16.636,-27.3468 -0.144,-131.03366 0.292,-262.12316 -0.216,-393.12192 -0.451,-12.78824 -13.5892,-20.64047 -25.49828,-18.87808 -25.86396,0.42432 -51.89184,-0.85592 -77.65148,0.65328 -1.3736,0.2668 -2.7472,0.53324 -4.12084,0.79984 z"
     id="path528" />
</svg>
