<?xml version="1.0" encoding="UTF-8" standalone="no"?>
<svg
   height="24"
   viewBox="0 -960 960 960"
   width="24"
   version="1.1"
   id="svg520"
   sodipodi:docname="Power.svg"
   xmlns:inkscape="http://www.inkscape.org/namespaces/inkscape"
   xmlns:sodipodi="http://sodipodi.sourceforge.net/DTD/sodipodi-0.dtd"
   xmlns="http://www.w3.org/2000/svg"
   xmlns:svg="http://www.w3.org/2000/svg">
  <defs
     id="defs524" />
  <sodipodi:namedview
     id="namedview522"
     pagecolor="#ffffff"
     bordercolor="#000000"
     borderopacity="0.25"
     inkscape:showpageshadow="2"
     inkscape:pageopacity="0.0"
     inkscape:pagecheckerboard="0"
     inkscape:deskcolor="#d1d1d1"
     showgrid="false" />
  <path
     d="m 440,-440 v -400 h 80 v 400 z m 40,320 q -74,0 -139.5,-28.5 Q 275,-177 226,-226 177,-275 148.5,-340.5 120,-406 120,-480 q 0,-80 33,-151 33,-71 93,-123 l 56,56 q -48,40 -75,97 -27,57 -27,121 0,116 82,198 82,82 198,82 117,0 198.5,-82 81.5,-82 81.5,-198 0,-64 -26.5,-121 -26.5,-57 -75.5,-97 l 56,-56 q 60,52 93,123 33,71 33,151 0,74 -28.5,139.5 -28.5,65.5 -77,114.5 -48.5,49 -114,77.5 Q 555,-120 480,-120 Z"
     id="path518" />
</svg>
