<?xml version="1.0" encoding="UTF-8" standalone="no"?>
<svg
   height="24"
   viewBox="0 -960 960 960"
   width="24"
   version="1.1"
   id="svg564"
   sodipodi:docname="Services.svg"
   xmlns:inkscape="http://www.inkscape.org/namespaces/inkscape"
   xmlns:sodipodi="http://sodipodi.sourceforge.net/DTD/sodipodi-0.dtd"
   xmlns="http://www.w3.org/2000/svg"
   xmlns:svg="http://www.w3.org/2000/svg">
  <defs
     id="defs568" />
  <sodipodi:namedview
     id="namedview566"
     pagecolor="#ffffff"
     bordercolor="#000000"
     borderopacity="0.25"
     inkscape:showpageshadow="2"
     inkscape:pageopacity="0.0"
     inkscape:pagecheckerboard="0"
     inkscape:deskcolor="#d1d1d1"
     showgrid="false" />
  <path
     d="m 80,-200 v -80 h 800 v 80 z m 40,-120 v -40 q 0,-128 78.5,-226 78.5,-98 201.5,-124 v -10 q 0,-33 23.5,-56.5 23.5,-23.5 56.5,-23.5 33,0 56.5,23.5 23.5,23.5 23.5,56.5 v 10 q 124,26 202,124 78,98 78,226 v 40 z m 82,-80 h 556 q -14,-104 -93,-172 -79,-68 -185,-68 -106,0 -184.5,68 -78.5,68 -93.5,172 z m 278,0 z"
     id="path562" />
  <path
     style="fill:#f9f9f9;stroke-width:57.1428"
     d="m 478.9576,-819.81027 c -31.6878,-0.38759 -61.9124,16.61305 -80.19948,42.14669 -11.48792,14.85 -17.1231,33.38804 -18.45901,51.94037 -58.68185,15.12087 -114.17704,43.75208 -158.36945,85.50026 -75.02873,69.17518 -121.36778,169.53151 -121.31261,271.96371 0.202,17.8178 -1.989278,35.82892 0.05,53.50912 2.852,12.40772 16.88942,16.232 28.15669,14.75012 237.16518,0 474.33038,0 711.49554,0 12.7742,-0.148 21.85936,-12.70316 19.90892,-24.95008 -1.0628,-38.64644 0.396,-77.77944 -8.54284,-115.695 -18.91812,-93.93832 -76.245,-179.26168 -155.215,-233.31162 -35.3184,-24.24187 -75.72344,-41.09478 -116.73376,-52.02098 -2.20712,-45.33967 -39.01104,-86.30755 -84.08256,-92.60491 -5.52016,-0.86003 -11.10992,-1.27037 -16.69644,-1.22768 z m -0.4932,200.01786 c 52.87224,-1.1218 105.92204,14.30301 149.45536,44.44419 53.04344,35.85586 92.8788,91.71246 106.1116,154.67858 -5.11728,1.5676 -13.89664,0.22 -20.4174,0.6696 -162.27992,-0.192 -324.93498,0.4436 -486.98214,-0.4956 0.82932,-7.7842 4.38214,-18.1254 7.04687,-26.61164 19.79527,-59.70192 64.56683,-109.44284 118.86708,-140.81137 38.15679,-21.78157 82.14015,-31.94814 125.91851,-31.87376 z"
     id="path570" />
  <path
     style="fill:#f9f9f9;stroke-width:57.1428"
     d="m 72.513392,-298.54688 c -11.430964,4.72672 -13.65754,17.81816 -12.513392,28.8326 0.42296,24.34028 -0.85404,48.844 0.65328,73.08004 1.498844,12.9282 15.78616,18.3376 27.34672,16.63424 264,0 528,0 792,0 12.64392,-0.152 21.64836,-12.4302 20,-24.57144 -0.4248,-26.24488 0.8564,-52.65376 -0.6532,-78.79432 C 897.84788,-296.29396 883.56056,-301.70336 872,-300 c -264,0 -528,0 -792,0 -2.49552,0.4844 -4.991072,0.9688 -7.486608,1.4532 z"
     id="path572" />
</svg>
