<?xml version="1.0" encoding="UTF-8" standalone="no"?>
<svg
   height="24"
   viewBox="0 -960 960 960"
   width="24"
   version="1.1"
   id="svg608"
   xmlns="http://www.w3.org/2000/svg"
   xmlns:svg="http://www.w3.org/2000/svg">
  <defs
     id="defs612" />
  <path
     d="m 370,-80 -16,-128 q -13,-5 -24.5,-12 -11.5,-7 -22.5,-15 l -119,50 -110,-190 103,-78 q -1,-7 -1,-13.5 v -27 q 0,-6.5 1,-13.5 l -103,-78 110,-190 119,50 q 11,-8 23,-15 12,-7 24,-12 l 16,-128 h 220 l 16,128 q 13,5 24.5,12 11.5,7 22.5,15 l 119,-50 110,190 -103,78 q 1,7 1,13.5 v 27 q 0,6.5 -2,13.5 l 103,78 -110,190 -118,-50 q -11,8 -23,15 -12,7 -24,12 l -16,128 z m 70,-80 h 79 l 14,-106 q 31,-8 57.5,-23.5 Q 617,-305 639,-327 l 99,41 39,-68 -86,-65 q 5,-14 7,-29.5 2,-15.5 2,-31.5 0,-16 -2,-31.5 -2,-15.5 -7,-29.5 l 86,-65 -39,-68 -99,42 Q 617,-655 590.5,-670.5 564,-686 533,-694 l -13,-106 h -79 l -14,106 q -31,8 -57.5,23.5 Q 343,-655 321,-633 l -99,-41 -39,68 86,64 q -5,15 -7,30 -2,15 -2,32 0,16 2,31 2,15 7,30 l -86,65 39,68 99,-42 q 22,23 48.5,38.5 26.5,15.5 57.5,23.5 z m 42,-180 q 58,0 99,-41 41,-41 41,-99 0,-58 -41,-99 -41,-41 -99,-41 -59,0 -99.5,41 -40.5,41 -40.5,99 0,58 40.5,99 40.5,41 99.5,41 z m -2,-140 z"
     id="path606" />
  <path
     style="fill:#f9f9f9;stroke-width:57.1428"
     d="m 362.90178,-898.54688 c -13.05184,5.4665 -13.2068,20.71176 -14.69387,32.68981 -4.30064,33.5007 -8.36783,67.19495 -12.70121,100.53787 -10.57618,5.34046 -20.86136,11.26735 -30.75447,17.78796 -37.53117,-15.42251 -74.60459,-32.11414 -112.50689,-46.54712 -11.85126,-2.51729 -21.54438,6.59648 -25.97854,16.75132 -35.47508,61.40071 -71.313252,122.62918 -105.684212,184.644 -4.38192,11.14527 2.473544,22.45456 12.066844,28.13324 28.884428,22.50488 58.205108,44.44152 87.350568,66.6056 0,11.9628 0,23.9256 0,35.8884 -31.70205,24.43116 -64.268304,47.82896 -95.211536,73.19672 -8.405224,8.72024 -5.935928,21.96336 0.78044,30.90208 35.038066,61.48376 69.979466,123.04112 105.966796,183.9704 7.16193,9.9508 20.97722,10.12984 30.85688,4.34056 34.19076,-14.06396 68.22556,-28.50308 102.31722,-42.80484 9.87872,6.59748 20.1392,12.66296 30.80134,17.89956 5.47958,39.5552 9.27334,79.483 15.56936,118.99756 2.56056,12.28712 15.96245,17.22068 27.30787,15.55376 70.77475,-0.144 141.60531,0.292 212.34515,-0.216 12.92124,-0.4604 19.87292,-13.38104 19.90944,-25.091 4.66508,-36.4238 9.2102,-72.86296 13.71196,-109.30732 10.67392,-5.26692 20.98064,-11.27312 30.90624,-17.83928 35.94908,14.69536 71.196,31.24544 107.71876,44.46428 11.54144,4.24152 24.4058,-2.4092 28.99488,-13.51036 35.68252,-61.259 71.2176,-122.62184 105.71492,-184.55436 5.1368,-10.76136 -0.7668,-23.06448 -10.54944,-28.78992 -29.03568,-22.7636 -58.6276,-44.80472 -87.99964,-67.12972 0.156,-12.10464 0.128,-23.66104 0.48,-35.52008 31.19732,-24.14264 62.99624,-47.547 94.18304,-71.67188 9.69692,-8.12242 8.54604,-22.76093 1.29388,-32.09364 -35.162,-61.44918 -70.34136,-122.8945 -106.1154,-183.98849 -6.62368,-10.08918 -20.40012,-11.25823 -30.29636,-5.49291 -34.5238,14.21485 -68.89444,28.798 -103.3242,43.23845 -9.90424,-6.61018 -20.183,-12.70089 -30.87276,-17.94643 -5.4796,-39.55522 -9.27336,-79.48303 -15.56936,-118.99757 -2.56056,-12.28712 -15.96244,-17.22069 -27.30788,-15.55377 -70.77472,0.1452 -141.60528,-0.2904 -212.34513,0.2176 -2.12156,0.4118 -4.24312,0.82356 -6.36469,1.23536 z M 480.5424,-780 c 7.30732,0 14.6146,0 21.92188,0 4.10856,30.19201 6.65404,60.65695 11.6116,90.6942 6.50148,15.57835 25.55556,16.5684 39.037,22.86538 27.9432,10.65694 52.20392,28.86742 73.64184,49.3611 11.09312,9.59226 25.06628,1.28168 36.26744,-3.51608 22.1678,-9.40304 44.33148,-18.8159 66.51804,-28.17469 7.16048,12.48425 14.33012,24.96264 21.49552,37.44419 -24.42432,18.92682 -49.76116,36.80722 -73.6082,56.32418 -9.37384,9.78908 -4.276,23.46408 -1.2488,34.687 5.8482,31.79092 5.12468,65.131 -3.9172,96.2522 -2.666,11.96664 6.10944,22.15008 15.81776,27.75184 20.95404,15.8322 41.97516,31.75612 62.95456,47.63656 -7.1904,12.52296 -14.37788,25.04664 -21.56472,37.57144 -28.22532,-11.34224 -56.11028,-23.7996 -84.53908,-34.46836 -15.01004,-4.49388 -24.94688,10.61616 -35.53092,18.43152 -23.11228,19.67636 -50.97764,32.80152 -79.71572,41.98328 -10.893,2.9624 -17.32968,13.54472 -17.39132,24.47012 -3.6752,26.87896 -7.0356,53.7998 -10.65556,80.68612 -14.7046,0 -29.40924,0 -44.11384,0 -3.99508,-29.85276 -6.65868,-59.95812 -11.40984,-89.66536 -3.69852,-15.49488 -21.56764,-17.03188 -33.96796,-21.7764 -29.9596,-10.69456 -56.11158,-29.73788 -78.95308,-51.50004 -11.49848,-9.79752 -25.70804,-0.73464 -37.26987,4.01492 -21.74656,9.24124 -43.49753,18.472 -65.25005,27.6992 -7.44299,-12.34688 -14.47011,-24.93772 -21.68973,-37.41516 24.02375,-18.8504 49.55501,-35.92928 72.28571,-56.34824 7.97016,-7.39496 7.75232,-19.03852 4.12826,-28.49464 -8.048,-33.79668 -6.94168,-69.47852 2.03915,-102.95848 2.90023,-11.37144 -4.60707,-21.82696 -14.12475,-27.292 -21.38656,-15.9583 -42.8344,-31.83386 -64.26364,-47.73478 7.40342,-12.40453 14.17036,-25.64766 21.90848,-37.34822 28.08234,11.30558 55.81256,23.75508 84.10119,34.381 15.01811,4.50822 24.96512,-10.60032 35.54967,-18.43058 23.71606,-20.01888 52.22734,-33.6193 81.80674,-42.47497 11.45448,-3.83808 15.32092,-16.29917 15.72436,-27.24175 3.52436,-25.78974 6.75124,-51.61825 10.22652,-77.4145 7.39284,0 14.78572,0 22.17856,0 z"
     id="path614" />
  <path
     style="fill:#f9f9f9;stroke-width:57.1428"
     d="m 479.72544,-639.41964 c -40.29956,-0.32546 -80.42562,15.5791 -108.82366,44.32142 -29.13318,27.47192 -47.12598,66.31014 -48.2017,106.43186 -2.42852,40.386 10.21061,81.88872 37.37135,112.25788 29.53323,35.25884 74.89621,57.41468 121.20313,55.69644 43.29664,1.586 86.20544,-17.02356 115.65276,-48.60856 30.08204,-29.87972 46.31284,-72.43968 44.69768,-114.7218 -0.236,-41.9392 -18.74972,-82.94864 -49.47464,-111.39135 -27.4104,-27.41179 -65.4434,-43.43507 -104.20616,-43.89884 -2.7388,-0.084 -5.47888,-0.112 -8.21876,-0.0872 z"
     id="path616" />
</svg>
